<svg width="34" height="34" viewBox="0 0 34 34" fill="none" xmlns="http://www.w3.org/2000/svg">
<g clip-path="url(#clip0_8_985)">
<path d="M30.4583 31.1667H3.54167C1.5895 31.1667 0 29.5772 0 27.625V24.7917C0 24.4007 0.317333 24.0833 0.708333 24.0833H1.41667C2.97925 24.0833 4.25 22.8126 4.25 21.25C4.25 19.6874 2.97925 18.4167 1.41667 18.4167H0.708333C0.317333 18.4167 0 18.0993 0 17.7083V14.875C0 12.9228 1.5895 11.3333 3.54167 11.3333H30.4583C32.4105 11.3333 34 12.9228 34 14.875V17.7083C34 18.0993 33.6827 18.4167 33.2917 18.4167H32.5833C31.0207 18.4167 29.75 19.6874 29.75 21.25C29.75 22.0065 30.0447 22.7177 30.5802 23.2532C31.1143 23.7887 31.8254 24.0833 32.5819 24.0833H33.2902C33.6813 24.0833 33.9986 24.4007 33.9986 24.7917V27.625C34 29.5772 32.4105 31.1667 30.4583 31.1667ZM1.41667 25.5V27.625C1.41667 28.7966 2.37008 29.75 3.54167 29.75H30.4583C31.6299 29.75 32.5833 28.7966 32.5833 27.625V25.5C31.4486 25.5 30.3804 25.058 29.5786 24.2562C28.7753 23.4529 28.3333 22.3848 28.3333 21.25C28.3333 18.9068 30.2402 17 32.5833 17V14.875C32.5833 13.7034 31.6299 12.75 30.4583 12.75H3.54167C2.37008 12.75 1.41667 13.7034 1.41667 14.875V17C3.75983 17 5.66667 18.9068 5.66667 21.25C5.66667 23.5932 3.75983 25.5 1.41667 25.5Z" fill="#DD8741"/>
<path d="M12.0416 14.1667C11.6506 14.1667 11.3333 13.8493 11.3333 13.4583V12.0417C11.3333 11.6507 11.6506 11.3333 12.0416 11.3333C12.4326 11.3333 12.75 11.6507 12.75 12.0417V13.4583C12.75 13.8493 12.4326 14.1667 12.0416 14.1667Z" fill="#DD8741"/>
<path d="M12.0416 26.1531C11.6506 26.1531 11.3333 25.8358 11.3333 25.4448V23.0492C11.3333 22.6582 11.6506 22.3408 12.0416 22.3408C12.4326 22.3408 12.75 22.6568 12.75 23.0492V25.4462C12.75 25.8372 12.4326 26.1531 12.0416 26.1531ZM12.0416 20.1606C11.6506 20.1606 11.3333 19.8433 11.3333 19.4523V17.0553C11.3333 16.6643 11.6506 16.3469 12.0416 16.3469C12.4326 16.3469 12.75 16.6643 12.75 17.0553V19.4523C12.75 19.8433 12.4326 20.1606 12.0416 20.1606Z" fill="#DD8741"/>
<path d="M12.0416 31.1667C11.6506 31.1667 11.3333 30.8493 11.3333 30.4583V29.0417C11.3333 28.6507 11.6506 28.3333 12.0416 28.3333C12.4326 28.3333 12.75 28.6507 12.75 29.0417V30.4583C12.75 30.8493 12.4326 31.1667 12.0416 31.1667Z" fill="#DD8741"/>
<path d="M3.54169 12.75C3.25411 12.75 2.98352 12.5743 2.87869 12.2896C2.74127 11.9227 2.92686 11.5147 3.29377 11.3787L25.8188 2.96793C26.9139 2.55709 28.2002 3.17193 28.5742 4.27551L31.1284 11.8136C31.2531 12.1848 31.0548 12.5857 30.685 12.7118C30.3181 12.8378 29.9129 12.6381 29.7869 12.2683L27.2326 4.73026C27.1079 4.36193 26.6801 4.16076 26.3132 4.29393L3.78819 12.7047C3.70744 12.7358 3.62386 12.75 3.54169 12.75Z" fill="#DD8741"/>
</g>
<defs>
<clipPath id="clip0_8_985">
<rect width="34" height="34" fill="white"/>
</clipPath>
</defs>
</svg>
